<?xml version="1.0" standalone="no"?>
<!DOCTYPE svg PUBLIC "-//W3C//DTD SVG 20010904//EN"
 "http://www.w3.org/TR/2001/REC-SVG-20010904/DTD/svg10.dtd">
<svg version="1.0" xmlns="http://www.w3.org/2000/svg"
 width="354.000000pt" height="354.000000pt" viewBox="0 0 354.000000 354.000000"
 preserveAspectRatio="xMidYMid meet">
<metadata>
Created by potrace 1.14, written by Peter Selinger 2001-2017
</metadata>
<g transform="translate(0.000000,354.000000) scale(0.100000,-0.100000)"
fill="#000000" stroke="none">
<path d="M1629 3469 c-302 -25 -628 -153 -874 -344 -120 -93 -303 -289 -381
-406 -283 -430 -360 -978 -203 -1454 40 -121 147 -336 216 -432 200 -280 414
-457 720 -596 113 -51 285 -100 295 -84 5 7 7 43 6 82 l-3 70 -115 41 c-225
79 -392 179 -546 326 l-93 90 1 714 c0 393 3 714 7 714 3 0 29 -33 56 -73 l50
-72 5 -600 5 -600 24 -52 c38 -86 157 -178 205 -160 10 4 13 149 13 756 1 582
4 755 13 766 7 9 32 20 56 26 l44 11 0 58 c0 53 -3 61 -31 84 -17 14 -42 26
-55 26 l-25 0 2 247 c1 228 0 247 -17 260 -21 15 -200 18 -224 3 -12 -7 -14
-46 -11 -249 2 -138 -1 -241 -6 -241 -5 0 -40 39 -77 86 -38 47 -95 106 -128
129 l-58 44 59 73 c182 226 450 422 696 508 182 64 276 82 455 87 116 3 188 0
243 -10 42 -7 79 -11 82 -9 3 3 5 40 5 83 0 92 11 85 -150 99 -125 11 -122 11
-261 -1z m-1209 -1699 c0 -369 -2 -670 -5 -670 -11 0 -65 131 -100 243 -102
321 -81 734 52 1020 20 42 40 77 45 77 4 0 8 -301 8 -670z"/>
<path d="M2207 3413 c-4 -3 -7 -102 -7 -220 l0 -213 -205 0 -205 0 -33 47
c-73 107 -139 159 -224 177 -45 10 -48 -6 -13 -61 61 -96 62 -109 63 -627 1
-259 3 -518 5 -575 l3 -103 217 5 c247 6 334 21 460 84 89 44 146 98 180 171
l27 57 3 328 3 327 196 0 196 0 69 -72 c73 -77 170 -213 218 -307 99 -196 160
-502 145 -726 -12 -193 -73 -432 -146 -578 -39 -77 -91 -157 -158 -245 l-56
-73 -31 37 c-18 22 -36 34 -43 30 -6 -4 -23 -30 -37 -58 -68 -134 -248 -264
-407 -292 l-37 -7 2 273 3 273 295 5 c262 4 299 7 333 24 21 10 46 29 57 43
38 48 41 108 38 709 l-3 579 -29 58 c-34 67 -89 120 -155 150 -37 17 -71 22
-174 25 -77 3 -133 0 -139 -6 -13 -13 11 -58 49 -95 31 -29 79 -47 125 -47 19
0 33 -9 45 -27 15 -23 18 -49 17 -168 -1 -167 -18 -220 -91 -285 -78 -68 -202
-92 -257 -49 -33 26 -46 18 -46 -28 0 -74 49 -134 120 -146 42 -8 151 14 215
42 l45 20 0 -125 0 -124 -567 0 c-328 0 -594 4 -629 10 -34 6 -94 23 -134 40
-97 40 -104 39 -96 -7 13 -68 48 -126 98 -160 26 -17 53 -33 60 -35 10 -4 13
-141 13 -676 1 -369 4 -674 7 -677 11 -11 322 -7 405 5 200 29 383 84 542 162
303 149 585 435 744 754 120 239 165 419 174 689 8 248 -20 419 -106 649 -61
161 -117 264 -230 418 -13 17 -11 22 24 50 50 42 85 118 85 186 l0 54 -45 -40
c-49 -43 -104 -62 -179 -62 -42 0 -51 5 -123 71 -149 135 -361 260 -567 334
-112 40 -101 37 -109 28z m431 -376 c39 -27 72 -51 72 -53 0 -2 -52 -4 -115
-4 l-115 0 0 80 0 80 43 -26 c23 -15 75 -49 115 -77z m-440 -514 c-3 -316 -5
-325 -67 -396 -40 -44 -120 -76 -213 -84 l-68 -6 0 387 0 386 176 0 175 0 -3
-287z m642 -1172 c0 -81 -3 -100 -16 -105 -9 -3 -197 -6 -420 -6 -350 0 -409
2 -444 16 -53 21 -67 10 -51 -38 30 -85 95 -139 184 -153 l37 -6 1 -137 c0
-75 3 -241 5 -368 3 -177 1 -234 -9 -241 -10 -9 -58 -17 -234 -40 l-43 -5 0
591 0 591 495 0 495 0 0 -99z"/>
<path d="M1159 3133 c-6 -62 4 -2517 11 -2544 23 -86 118 -172 191 -173 l40
-1 0 1273 c-1 1053 -4 1279 -15 1306 -21 49 -71 101 -121 125 -44 21 -104 28
-106 14z"/>
</g>
</svg>
